<svg xmlns="http://www.w3.org/2000/svg" viewBox="0 0 512 512">
  <path fill="#747da5" d="M132.19 379.81 273.3 238.7l129.74 129.74-141.11 141.11c-3.27 3.27-8.58 3.27-11.85 0L132.2 391.67c-3.27-3.27-3.27-8.58 0-11.85Z"/>
  <path fill="#80bb90" d="M379.81 379.81 238.7 238.7l129.74-129.74 141.11 141.11c3.27 3.27 3.27 8.58 0 11.85L391.67 379.8c-3.27 3.27-8.58 3.27-11.85 0Z"/>
  <path fill="#f2d7ad" d="M379.81 132.19 238.7 273.3 108.96 143.56 250.07 2.45c3.27-3.27 8.58-3.27 11.85 0L379.8 120.33c3.27 3.27 3.27 8.58 0 11.85Z"/>
  <path fill="#f4b3bd" d="M256 256 132.19 379.81c-3.27 3.27-8.58 3.27-11.85 0L2.45 261.93c-3.27-3.27-3.27-8.58 0-11.85L120.33 132.2c3.27-3.27 8.58-3.27 11.85 0l123.81 123.81Z"/>
  <path d="M139.76 187.14h-21.78v-46.71h123.51v47.16h-48.28v64.45H226v47.16h-70.29l-15.94-30.77v-81.29ZM267.54 299.2V187.14h-12.58v-46.71h125.98l17.52 32.79v98.36l-16.62 27.62H267.53Zm53.45-111.84v64.68h18.42v-64.68h-18.42ZM151.15 371.57l-1.68-5.85h-12.76l-1.68 5.85h-22.15l15.42-62.64h29.59l15.42 62.64h-22.15Zm-10.81-21.53h5.49l-2.75-13.2-2.75 13.2ZM177.28 371.57v-62.64h44.74l6.91 12.93v38.81l-6.56 10.9h-45.09Zm21.09-44.12v25.51h7.26v-25.51h-7.26ZM283.77 371.57h-21.09v-43.94h-7.35v43.94h-21.09v-62.64h71.41l6.56 10.9v51.74h-21.08v-43.94h-7.35v43.94ZM338.61 308.94v62.64h-21.08v-62.64h21.08ZM343.93 371.57v-62.64h42.52l6.91 12.93v49.7h-21.09v-44.12h-7.26v44.12h-21.08Z"/>
</svg>
