<svg xmlns="http://www.w3.org/2000/svg" viewBox="0 0 512 512">
  <defs>
    <symbol id="mission">
      <title>mission</title>
      <path fill="#f9f7f8" d="M171.7 428H209V46.3a31.3 31.3 0 0 1-37.3 0V428Z" />
      <path fill="#beb9dd" d="M106.1 475.2h183.3V429c0-6.4-5.3-11.6-11.7-11.6h-160c-6.4 0-11.6 5.2-11.6 11.6v46.2Z" />
      <path fill="#375e7d" d="M289.4 464.7H79.9c-6.4 0-11.6 5.2-11.6 11.6v24c0 6.5 5.2 11.7 11.6 11.7h235.6c6.4 0 11.7-5.2 11.7-11.6v-24c0-6.5-5.3-11.7-11.7-11.7h-26.1Z" />
      <path fill="#a7a2d3" d="M251.2 429v35.7h38.2V429c0-6.4-5.3-11.6-11.7-11.6h-38.2c6.4 0 11.7 5.2 11.7 11.6Z" />
      <path fill="#2b4d66" d="M289.4 464.7h-12c6.4 0 11.6 5.2 11.6 11.6v24c0 6.5-5.2 11.7-11.7 11.7h38.2c6.4 0 11.7-5.2 11.7-11.6v-24c0-6.5-5.3-11.7-11.7-11.7h-26.1Z" />
      <path fill="#eb5468" d="M209 238.6h231.6a3 3 0 0 0 2.6-4.7L398 161.7l45.3-72.2a3 3 0 0 0-2.6-4.7H209v153.8Z" />
      <path fill="#ffd772" d="M209 57a31.5 31.5 0 1 0-37.1-50.8A31.5 31.5 0 0 0 209 57Z" />
      <path fill="#e5384f" d="M440.6 84.8H317.2a216 216 0 0 1 10.4 66.9c0 32-6.7 61.7-18.1 86.9h131.1a3 3 0 0 0 2.6-4.7L398 161.7l45.3-72.2a3 3 0 0 0-2.6-4.7Z" />
      <path fill="#dddaec" d="M209 57a31.3 31.3 0 0 1-18.6 6.1v354.3H209V57Z" />
      <path fill="#fbba58" d="M190.4 63.1A31.5 31.5 0 1 0 181 1.4a31.6 31.6 0 0 1 0 60.3c2.9 1 6 1.4 9.3 1.4Z" />
    </symbol>
    <symbol id="complete-mission">
      <title>complete-mission</title>
      <path fill="#0ed2b3" d="M512 256c0 12-14.8 22.9-16.5 34.5-1.6 11.8 9.5 26.4 6.2 37.6-3.4 11.5-20.6 17.7-25.5 28.4-5 10.9 1.6 28-4.8 38s-24.8 11-32.5 20c-7.8 9-6.3 27.2-15.3 35-8.9 7.7-26.8 3.6-36.8 10-10 6.5-13.6 24.5-24.4 29.4-10.7 5-26.7-4-38.2-.7-11.3 3.3-20 19.5-31.8 21.2C281 511.1 268 498 256 498s-24.9 13-36.4 11.4c-11.9-1.7-20.5-17.9-31.8-21.2-11.5-3.3-27.5 5.6-38.2.7-10.8-5-14.5-23-24.4-29.3-10-6.4-27.9-2.4-36.8-10.1-9-7.8-7.5-26-15.3-35-7.7-9-26-10.1-32.5-20-6.4-10 .2-27.1-4.8-38-4.9-10.7-22.1-16.9-25.5-28.4-3.3-11.2 7.8-25.8 6.2-37.7C14.8 279 0 268 0 256s14.8-22.9 16.5-34.5C18 209.8 7 195.2 10.3 184c3.4-11.5 20.6-17.7 25.5-28.4 5-10.9-1.6-28 4.8-38s24.8-11 32.5-20c7.8-9 6.3-27.2 15.3-35 8.9-7.7 26.8-3.6 36.8-10 10-6.5 13.6-24.5 24.4-29.4 10.7-5 26.7 4 38.2.7 11.3-3.3 20-19.5 31.8-21.2C231 .9 244 14 256 14s24.9-13 36.4-11.4c11.9 1.7 20.5 17.9 31.8 21.2 11.4 3.3 27.5-5.6 38.2-.7 10.8 5 14.5 23 24.4 29.3 10 6.4 27.9 2.4 36.8 10.1 9 7.8 7.5 26 15.3 35 7.7 9 26 10.1 32.5 20 6.4 10-.2 27.1 4.8 38 4.9 10.7 22.1 16.9 25.5 28.4 3.3 11.2-7.9 25.8-6.2 37.7C497.2 233 512 244 512 256Z" />
      <path fill="#0ab69f" d="M495.5 290.4C497.2 279 512 268 512 256s-14.8-22.9-16.5-34.5c-1.6-11.8 9.5-26.4 6.2-37.6-3.4-11.5-20.6-17.7-25.5-28.4-5-10.9 1.6-28-4.8-38s-24.8-11-32.5-20c-7.8-9-6.3-27.2-15.3-35-8.9-7.7-26.8-3.6-36.8-10-10-6.5-13.6-24.5-24.4-29.4a21.5 21.5 0 0 0-10.7-1.4A253.6 253.6 0 0 1 80.4 433.1c1.6 6.4 3.5 12.6 7.8 16.4 9 7.7 26.9 3.7 36.9 10 9.9 6.5 13.6 24.5 24.4 29.4 10.7 5 26.7-4 38.2-.7 11.2 3.3 19.9 19.5 31.7 21.2C231.1 511.1 244 498 256 498s24.8 13 36.4 11.4c11.9-1.7 20.5-17.9 31.8-21.2 11.4-3.3 27.4 5.6 38.1.7 10.9-5 14.6-23 24.5-29.3 10-6.4 27.9-2.4 36.8-10.1 9-7.8 7.5-26 15.2-35 7.8-9 26.1-10.1 32.6-20 6.3-10-.2-27.1 4.7-38 5-10.7 22.2-16.9 25.6-28.4 3.3-11.2-7.9-25.8-6.2-37.6Z" />
      <circle cx="256" cy="256" r="194.3" fill="#f3eae6" />
      <path fill="#efe2dd" d="M347.7 84.6a194.3 194.3 0 0 1-214.3 322.1A194.3 194.3 0 1 0 347.7 84.6Z" />
      <circle cx="256" cy="256" r="146.6" fill="#ffe177" />
      <path fill="#ffd15b" d="M321.1 124.7a146.5 146.5 0 0 1-161.2 242 146.5 146.5 0 1 0 161.1-242Z" />
      <path fill="#0ed2b3" d="m224.2 318.5-43-43.1c-4-4-4-10.6 0-14.7L192 250c4-4.1 10.7-4.1 14.7 0l17.5 17.5c4 4 10.7 4 14.7 0l70.1-70.1c4-4 10.7-4 14.7 0l10.9 10.8c4 4 4 10.7 0 14.7l-95.7 95.7c-4 4-10.6 4-14.7 0Z" />
    </symbol>
    <symbol id="play-card">
      <title>play-card</title>
      <path fill="#2196f3" d="M256 10.7a245.3 245.3 0 1 0 0 490.6 245.3 245.3 0 0 0 0-490.6Z" />
      <path fill="#fafafa" d="M278.6 92.9a32 32 0 0 0-45.2 0L115.2 211.2a48.4 48.4 0 0 0 0 68.4 49.5 49.5 0 0 0 68.4 0l19.2-19.2V384a53.3 53.3 0 0 0 106.7 0V260.4l19.2 19.2a49.5 49.5 0 0 0 68.4 0 48.4 48.4 0 0 0 0-68.4L278.6 92.9Z" />
    </symbol>
    <symbol id="note">
      <title>note</title>
      <path fill="#f6a7c5" d="m408.4 39-363 70.4a8 8 0 0 0-6.3 9.5l75 386.6a8 8 0 0 0 9.4 6.3l261-50.6 88.5-131-55.2-284.8a8 8 0 0 0-9.4-6.3Z" />
      <path fill="#f082a6" d="m384.5 461.2 88.5-131-101.9 19.7a8 8 0 0 0-6.3 9.4l19.7 102ZM104.5 98l40.9 78.8 88.4-16 6.4-89.1L104.5 98z" />
      <path fill="#fcde76" d="M245.6 1a8 8 0 0 0-8.2.3l-19.7 13.2-19.6-13.2a8 8 0 0 0-9 0l-19.6 13.1-19.6-13A8.1 8.1 0 0 0 137.4 8v160.8a8 8 0 0 0 8 8H242a8 8 0 0 0 8-8V8a8 8 0 0 0-4.2-7Z" />
    </symbol>
  </defs>
</svg>
